<svg width="29" height="29" viewBox="0 0 29 29" fill="none" xmlns="http://www.w3.org/2000/svg">
<path d="M14.5 0C22.5164 0 29 6.48357 29 14.5C29 22.5164 22.5164 29 14.5 29C6.48357 29 0 22.5164 0 14.5C0 6.48357 6.48357 0 14.5 0ZM11.8486 22.1436C18.27 22.1436 21.7914 16.82 21.7914 12.2007V11.745C22.475 11.2479 23.0757 10.6264 23.5314 9.92214C22.91 10.1914 22.2264 10.3779 21.5221 10.4814C22.2471 10.0464 22.8064 9.36286 23.055 8.555C22.3714 8.94857 21.6257 9.23857 20.8386 9.40429C20.1964 8.72071 19.285 8.30643 18.2907 8.30643C16.3643 8.30643 14.79 9.88071 14.79 11.8071C14.79 12.0764 14.8107 12.3457 14.8936 12.5943C11.9936 12.4493 9.40429 11.0614 7.685 8.94857C7.395 9.46643 7.20857 10.0671 7.20857 10.7093C7.20857 11.9107 7.83 12.9879 8.76214 13.6093C8.18214 13.6093 7.64357 13.4436 7.18786 13.1743V13.2157C7.18786 14.9143 8.38929 16.3229 9.98429 16.6543C9.69429 16.7371 9.38357 16.7786 9.07286 16.7786C8.845 16.7786 8.63786 16.7579 8.41 16.7164C8.845 18.1043 10.15 19.1193 11.6621 19.14C10.4607 20.0721 8.94857 20.6314 7.31214 20.6314C7.02214 20.6314 6.75286 20.6314 6.48357 20.59C8.01643 21.5843 9.86 22.1643 11.8279 22.1643" fill="black"/>
</svg>
